<svg height="400" version="1.1" width="600" xmlns="http://www.w3.org/2000/svg" xmlns:xlink="http://www.w3.org/1999/xlink" style="overflow: hidden; position: relative;"><desc style="-webkit-tap-highlight-color: rgba(0, 0, 0, 0);">Created with Raphaël 2.2.0</desc><defs style="-webkit-tap-highlight-color: rgba(0, 0, 0, 0);"></defs><path fill="none" stroke="#000000" d="M300,60L300,100L292.9289321881345,92.92893218813452M300,100L307.0710678118655,92.92893218813452" transform="matrix(1,0,0,1,0,0)" style="-webkit-tap-highlight-color: rgba(0, 0, 0, 0);"></path><path fill="none" stroke="#000000" d="M300,140L200,180L203.9391929857917,170.80854969981942M200,180L209.19145030018058,183.9391929857917" transform="matrix(1,0,0,1,0,0)" style="-webkit-tap-highlight-color: rgba(0, 0, 0, 0);"></path><path fill="none" stroke="#000000" d="M300,140L400,180L390.8085496998194,183.9391929857917M400,180L396.0608070142083,170.80854969981942" transform="matrix(1,0,0,1,0,0)" style="-webkit-tap-highlight-color: rgba(0, 0, 0, 0);"></path><path fill="none" stroke="#000000" d="M200,220L300,260L290.8085496998194,263.9391929857917M300,260L296.0608070142083,250.80854969981942" transform="matrix(1,0,0,1,0,0)" style="-webkit-tap-highlight-color: rgba(0, 0, 0, 0);"></path><path fill="none" stroke="#000000" d="M400,220L300,260L303.9391929857917,250.80854969981942M300,260L309.1914503001806,263.9391929857917" transform="matrix(1,0,0,1,0,0)" style="-webkit-tap-highlight-color: rgba(0, 0, 0, 0);"></path><path fill="none" stroke="#000000" d="M300,300L300,340L292.9289321881345,332.9289321881345M300,340L307.0710678118655,332.9289321881345" transform="matrix(1,0,0,1,0,0)" style="-webkit-tap-highlight-color: rgba(0, 0, 0, 0);"></path><rect x="249" y="19" width="102" height="42" rx="0" ry="0" fill="none" stroke="#ff0000" transform="matrix(1,0,0,1,0,0)" style="-webkit-tap-highlight-color: rgba(0, 0, 0, 0); display: none;" stroke-width="2" stroke-dasharray="8,6"></rect><rect x="250" y="20" width="100" height="40" rx="20" ry="20" fill="#ffffff" stroke="#000" transform="matrix(1,0,0,1,0,0)" style="-webkit-tap-highlight-color: rgba(0, 0, 0, 0);"></rect><text x="300" y="40" text-anchor="middle" font-family="&quot;Arial&quot;" font-size="10px" stroke="none" fill="#000000" style="-webkit-tap-highlight-color: rgba(0, 0, 0, 0); text-anchor: middle; font-family: Arial; font-size: 10px;" transform="matrix(1,0,0,1,0,0)"><tspan dy="4" style="-webkit-tap-highlight-color: rgba(0, 0, 0, 0);">Start</tspan></text><rect x="249" y="99" width="102" height="42" rx="0" ry="0" fill="none" stroke="#ff0000" transform="matrix(1,0,0,1,0,0)" stroke-width="2" stroke-dasharray="8,6" style="-webkit-tap-highlight-color: rgba(0, 0, 0, 0); display: none;"></rect><rect x="250" y="100" width="100" height="40" rx="20" ry="20" fill="#ffffff" stroke="#000" transform="matrix(1,0,0,1,0,0)" style="-webkit-tap-highlight-color: rgba(0, 0, 0, 0);"></rect><text x="300" y="120" text-anchor="middle" font-family="&quot;Arial&quot;" font-size="10px" stroke="none" fill="#000000" style="-webkit-tap-highlight-color: rgba(0, 0, 0, 0); text-anchor: middle; font-family: Arial; font-size: 10px;" transform="matrix(1,0,0,1,0,0)"><tspan dy="4" style="-webkit-tap-highlight-color: rgba(0, 0, 0, 0);">Branch Node</tspan></text><rect x="149" y="179" width="102" height="42" rx="0" ry="0" fill="none" stroke="#ff0000" transform="matrix(1,0,0,1,0,0)" stroke-width="2" stroke-dasharray="8,6" style="-webkit-tap-highlight-color: rgba(0, 0, 0, 0); display: none;"></rect><rect x="150" y="180" width="100" height="40" rx="20" ry="20" fill="#ffffff" stroke="#000" transform="matrix(1,0,0,1,0,0)" style="-webkit-tap-highlight-color: rgba(0, 0, 0, 0);"></rect><text x="200" y="200" text-anchor="middle" font-family="&quot;Arial&quot;" font-size="10px" stroke="none" fill="#000000" style="-webkit-tap-highlight-color: rgba(0, 0, 0, 0); text-anchor: middle; font-family: Arial; font-size: 10px;" transform="matrix(1,0,0,1,0,0)"><tspan dy="4" style="-webkit-tap-highlight-color: rgba(0, 0, 0, 0);">Simple Node</tspan></text><rect x="349" y="179" width="102" height="42" rx="0" ry="0" fill="none" stroke="#ff0000" transform="matrix(1,0,0,1,0,0)" stroke-width="2" stroke-dasharray="8,6" style="-webkit-tap-highlight-color: rgba(0, 0, 0, 0); display: none;"></rect><rect x="350" y="180" width="100" height="40" rx="20" ry="20" fill="#ffffff" stroke="#000" transform="matrix(1,0,0,1,0,0)" style="-webkit-tap-highlight-color: rgba(0, 0, 0, 0);"></rect><text x="400" y="200" text-anchor="middle" font-family="&quot;Arial&quot;" font-size="10px" stroke="none" fill="#000000" style="-webkit-tap-highlight-color: rgba(0, 0, 0, 0); text-anchor: middle; font-family: Arial; font-size: 10px;" transform="matrix(1,0,0,1,0,0)"><tspan dy="4" style="-webkit-tap-highlight-color: rgba(0, 0, 0, 0);">Simple Node</tspan></text><rect x="249" y="259" width="102" height="42" rx="0" ry="0" fill="none" stroke="#ff0000" transform="matrix(1,0,0,1,0,0)" stroke-width="2" stroke-dasharray="8,6" style="-webkit-tap-highlight-color: rgba(0, 0, 0, 0); display: none;"></rect><rect x="250" y="260" width="100" height="40" rx="20" ry="20" fill="#ffffff" stroke="#000" transform="matrix(1,0,0,1,0,0)" style="-webkit-tap-highlight-color: rgba(0, 0, 0, 0);"></rect><text x="300" y="280" text-anchor="middle" font-family="&quot;Arial&quot;" font-size="10px" stroke="none" fill="#000000" style="-webkit-tap-highlight-color: rgba(0, 0, 0, 0); text-anchor: middle; font-family: Arial; font-size: 10px;" transform="matrix(1,0,0,1,0,0)"><tspan dy="4" style="-webkit-tap-highlight-color: rgba(0, 0, 0, 0);">Sync Node</tspan></text><rect x="249" y="339" width="102" height="42" rx="0" ry="0" fill="none" stroke="#ff0000" transform="matrix(1,0,0,1,0,0)" stroke-width="2" stroke-dasharray="8,6" style="-webkit-tap-highlight-color: rgba(0, 0, 0, 0); display: none;"></rect><rect x="250" y="340" width="100" height="40" rx="20" ry="20" fill="#ffffff" stroke="#000" transform="matrix(1,0,0,1,0,0)" style="-webkit-tap-highlight-color: rgba(0, 0, 0, 0);"></rect><text x="300" y="360" text-anchor="middle" font-family="&quot;Arial&quot;" font-size="10px" stroke="none" fill="#000000" style="-webkit-tap-highlight-color: rgba(0, 0, 0, 0); text-anchor: middle; font-family: Arial; font-size: 10px;" transform="matrix(1,0,0,1,0,0)"><tspan dy="4" style="-webkit-tap-highlight-color: rgba(0, 0, 0, 0);">End</tspan></text></svg>